<svg xmlns="http://www.w3.org/2000/svg" width="512" height="512" viewBox="0 0 512 512">
    <rect width="512" height="512" fill="#007a3d"/>
    <g transform="translate(-1.0690374,-1.4793311)" fill="#fff">
        <path d="m 373.07401,167.5549 c -3.00507,3.22522 -7.09523,6.42347 -12.26953,9.59375 -5.17472,3.17045 -11.6063,6.06035 -19.29492,8.66797 -7.67239,2.6078 -16.60185,4.81118 -26.78711,6.6074 -10.18562,1.77966 -21.77608,2.89019 -34.77148,3.33398 -1.22446,3.44788 -2.47647,7.15055 -3.75977,11.10937 -1.27889,3.95179 -2.5309,8.26019 -3.75976,12.92579 l -0.83438,0 c -0.55652,-0.55635 -1.02926,-1.25116 -1.41992,-2.08399 -0.38944,-0.83463 -0.75125,-2.03007 -1.08398,-3.58593 0.5563,-3.11496 1.16835,-6.17616 1.83594,-9.18359 0.66738,-3.00741 1.39063,-6.06035 2.16992,-9.18359 -5.67476,0 -11.01718,-0.72351 -16.02929,-2.16993 -0.33397,21.58088 -5.50836,41.39397 -15.52344,59.43945 -10.90728,19.69629 -33.66498,29.54458 -68.27148,29.54492 -13.9066,-7e-5 -25.26199,-4.06143 -34.06641,-12.18359 -8.90104,-8.23327 -13.35155,-18.52133 -13.35156,-30.86328 0,-13.01932 6.12013,-28.98698 18.36133,-47.90234 l 3.1709,1.16797 c -8.23308,15.24327 -12.34961,27.54785 -12.34961,36.91406 0,4.89758 1.19638,9.26367 3.58984,13.09766 2.39347,3.83399 5.78711,7.11326 10.18359,9.83789 4.39648,2.72462 9.79492,4.8112 16.19531,6.25976 6.40039,1.44857 13.60155,2.17187 21.60351,2.17188 12.23828,-10e-6 23.59375,-2.11328 34.06641,-6.33984 10.47265,-4.11719 17.5664,-9.40625 21.28125,-15.86719 3.44778,-6.22659 5.17185,-15.40039 5.17188,-27.51953 -3e-5,-6.56251 -1.02929,-13.09765 -3.08594,-19.60547 -2.05665,-6.50779 -4.86719,-12.26953 -8.43359,-17.28515 l 9.17968,-19.69141 c 1.89063,2.67186 3.67188,5.58594 5.34375,8.74024 1.66667,3.17046 2.94922,5.86914 3.84766,8.0957 3.22659,1.44857 6.45312,2.44792 9.67773,2.99805 3.22657,0.55665 6.62109,0.83438 10.18359,0.83398 1.22395,0 2.50326,0 3.84375,0 1.33506,0 2.72521,-0.11132 4.16797,-0.33398 6.12106,-10.12498 12.71485,-19.35677 19.77734,-27.69531 7.0625,-8.33853 14.44141,-15.625 22.13672,-21.85938 6.56249,-5.33854 12.90234,-9.51172 19.01953,-12.51953 6.11718,-3.00781 11.12109,-4.51171 15.01171,-4.51172 4.00391,0 7.84896,0.75131 11.53516,2.25391 3.68618,1.50262 6.92318,3.33401 9.71094,5.49219 2.78776,2.15823 5.08855,4.44662 6.90234,6.86524 1.81902,2.39061 2.50325,4.53124 2.05078,6.42187 0,4.56248 -0.44531,8.73046 -1.33594,12.50391 -0.89063,3.77345 -2.05859,7.20052 -3.50391,10.28125 -1.44531,3.08073 -3.08594,5.83854 -4.92187,8.27148 -1.83594,2.50522 -3.69792,4.81119 -5.58594,6.91797 z m -21.19531,-36.88477 c -3.11719,0 -7.03516,1.00261 -11.75391,3.00782 -4.71875,2.00521 -9.84375,4.86718 -15.375,8.58593 -5.53125,3.71875 -11.16406,8.34375 -16.89844,13.875 -5.78125,5.50781 -11.29688,11.76042 -16.54687,18.75 1.89062,0 3.69791,-0.0559 5.41992,-0.16797 1.72265,-0.11133 3.75651,-0.27799 6.10351,-0.50195 8.00781,-0.55664 15.875,-1.75208 23.60157,-3.58594 7.72656,-1.83385 16.04687,-4.47916 24.96093,-7.9375 7.00782,-2.66927 12.68359,-5.47656 17.02735,-8.42187 4.34374,-2.94532 7.11718,-5.42317 8.32031,-7.43359 -1.33594,-1.89063 -2.94922,-3.81641 -4.83985,-5.77735 -1.89062,-1.9486 -3.94531,-3.70311 -6.16406,-5.26367 -2.22657,-1.5599 -4.53385,-2.80664 -6.92188,-3.73828 -2.38801,-0.94531 -4.70052,-1.41992 -6.9375,-1.41992 z m -29.875,-55.53125 -11.84375,17.53125 -15.84375,-13.34375 11.6875,-17.1875 z"/>
    </g>
</svg>